<svg width="20" height="20" viewBox="0 0 20 20" fill="none" xmlns="http://www.w3.org/2000/svg">
<path d="M15 2.5C16.3807 2.5 17.5 3.61929 17.5 5V15C17.5 16.3807 16.3807 17.5 15 17.5H5C3.61929 17.5 2.5 16.3807 2.5 15V5C2.5 3.61929 3.61929 2.5 5 2.5H15ZM5 4.16699C4.53976 4.16699 4.16699 4.53976 4.16699 5V15C4.16699 15.4602 4.53976 15.833 5 15.833H6.66699V4.16699H5ZM8.33301 15.833H15C15.4602 15.833 15.833 15.4602 15.833 15V5C15.833 4.53976 15.4602 4.16699 15 4.16699H8.33301V15.833Z" fill="white" fill-opacity="0.5"/>
</svg>
