<svg width="32" height="32" viewBox="0 0 32 32" fill="none" xmlns="http://www.w3.org/2000/svg">
<g clip-path="url(#clip0_15226_103313)">
<path d="M15.456 31.9488C13.104 31.8433 11.0528 31.3318 9.04 30.3568C7.376 29.548 6.0032 28.5698 4.688 27.2527C2.4832 25.0501 0.995198 22.3041 0.355198 19.2607C-0.0288017 17.4481 -0.0832017 15.4501 0.195198 13.5864C0.435198 11.988 0.915198 10.4567 1.648 8.967C2.448 7.33983 3.424 5.9748 4.704 4.69927C7.2288 2.18019 10.4512 0.597774 13.968 0.147025C14.9344 0.0223495 16.336 -0.0128153 17.232 0.063908C21.1104 0.389982 24.592 1.99158 27.296 4.69927C29.9712 7.375 31.5552 10.7508 31.92 14.5614C31.984 15.2136 31.9936 16.5978 31.9392 17.2467C31.7056 19.98 30.8448 22.4895 29.3632 24.7432C28.1984 26.5111 26.6496 28.0775 24.896 29.2507C24.0512 29.8166 22.8192 30.4655 21.904 30.8267C20.4288 31.4086 18.8256 31.7826 17.28 31.9009C16.8128 31.9392 15.8016 31.9648 15.456 31.9488ZM17.312 27.6683C19.1072 27.4573 20.8672 26.8307 22.352 25.8685C25.0464 24.1262 26.9408 21.3738 27.584 18.2697C27.6544 17.9372 27.776 17.1412 27.776 17.0166V16.943H22.4H17.024L17.0304 17.4737L17.04 18.0044L18.3296 18.5191L19.616 19.0337V19.1424C19.616 19.2703 19.4624 19.4557 18.768 20.1686C16.3392 22.6589 13.6032 24.0847 11.4944 23.9632C10.224 23.8897 9.3728 23.2663 8.9952 22.1378C8.8512 21.7031 8.8 21.3258 8.8 20.6673C8.8 19.59 9.0016 18.6405 9.4944 17.3906C11.024 13.5097 14.7168 9.65112 18.128 8.36601C18.9344 8.06231 19.504 7.95042 20.256 7.94722C20.8 7.94722 21.0432 7.976 21.408 8.09428C23.04 8.61536 23.6384 10.4887 23.008 13.0909C22.9024 13.5288 22.6752 14.2289 22.512 14.6158C22.4512 14.7596 22.4 14.8907 22.4 14.9035C22.4 14.9163 23.6096 14.929 25.088 14.929C27.6256 14.929 27.776 14.9258 27.776 14.8747C27.776 14.7724 27.6544 13.9604 27.6 13.6983C27.2096 11.7834 26.3392 9.96441 25.0976 8.4683C24.7008 7.98878 23.8592 7.16401 23.3632 6.7676C21.5936 5.35781 19.5488 4.50427 17.28 4.23254C16.7168 4.16221 15.4208 4.15262 14.896 4.21336C11.8944 4.55542 9.2384 5.90766 7.2544 8.10387C4.3424 11.3326 3.44 15.9169 4.9312 19.9448C5.9392 22.6685 7.8944 24.9318 10.416 26.3001C11.9008 27.1057 13.4784 27.5724 15.184 27.7163C15.664 27.7546 16.7872 27.729 17.312 27.6683Z" fill="#314012"/>
<path d="M15.088 27.809C14.2496 27.7419 13.5104 27.6076 12.7232 27.3806C8.65279 26.2106 5.50079 22.953 4.46719 18.8452C4.08319 17.3139 4.01919 15.5301 4.29119 13.9061C4.64959 11.7642 5.67679 9.64795 7.15839 8.00799C9.14239 5.81179 11.792 4.46274 14.8 4.11748C15.3376 4.05674 16.8064 4.06633 17.376 4.13666C20.096 4.46593 22.4832 5.61678 24.4032 7.52847C25.1808 8.2989 25.696 8.95105 26.2144 9.81419C27.1616 11.3838 27.7184 13.0909 27.8816 14.9067L27.8912 15.025H25.0464C22.784 15.025 22.2048 15.0154 22.2176 14.9866C22.2272 14.9642 22.3008 14.7884 22.3808 14.5998C22.9376 13.2827 23.2288 11.8282 23.136 10.8148C22.9984 9.27073 22.2336 8.33726 20.896 8.08471C20.6016 8.02717 19.8848 8.03676 19.52 8.1007C18.5824 8.26693 17.5584 8.67612 16.512 9.3027C12.4 11.7706 8.89599 16.9974 8.89599 20.6673C8.89599 21.6328 9.10719 22.352 9.56159 22.9307C10.0928 23.6084 11.0784 23.9568 12.144 23.8482C13.8944 23.6691 15.8976 22.6206 17.856 20.8591C18.4384 20.3349 19.5552 19.1744 19.5168 19.1361C19.5104 19.1297 18.928 18.8931 18.224 18.6118L16.944 18.1003L16.9344 17.4737L16.928 16.8472H22.4128H27.8976L27.8848 16.9846C27.7632 18.1163 27.5968 18.8963 27.28 19.8202C26.4192 22.3233 24.704 24.5067 22.448 25.9644C20.9632 26.9235 19.2128 27.55 17.408 27.7642C16.896 27.825 15.5872 27.8506 15.088 27.809Z" fill="#C7E36C"/>
</g>
<defs>
<clipPath id="clip0_15226_103313">
<rect width="32" height="32" fill="white"/>
</clipPath>
</defs>
</svg>
